{"title":"Burke.and.Hare.2010.720p.BRRip.x264.Feel-Free","uid":6182881,"size":1950365897,"categoryP":"video","categoryS":"hd___movies","magnet":"?xt=urn:btih:241bd990d1db1fba7722dd75a49e4d3d976ee8bd&amp;dn=Burke.and.Hare.2010.720p.BRRip.x264.Feel-Free&amp;tr=udp%3A%2F%2Ftracker.openbittorrent.com%3A80&amp;tr=udp%3A%2F%2Fopen.demonii.com%3A1337&amp;tr=udp%3A%2F%2Ftracker.coppersurfer.tk%3A6969&amp;tr=udp%3A%2F%2Fexodus.desync.com%3A6969","seeders":0,"leechers":0,"uploader":"hiest","files":-1,"time":1298017238,"description":"Genre:Comedy | Thriller \nLanguage:English\nIMDb:http://www.imdb.com/title/tt1320239/\nSource:BluRay.X264-AMIABLE\n\n\nFormat : MPEG-4\nFormat profile : Base Media\nCodec ID : isom\nFile size : 1.81 GiB\nDuration : 1h 31mn\nOverall bit rate : 2 835 Kbps\n\n\nVideo\nFormat settings, CABAC : Yes\nFormat settings, ReFrames : 3 frames\nCodec ID : avc1\nCodec ID/Info : Advanced Video Coding\nDuration : 1h 31mn\nBit rate mode : Variable\nBit rate : 2 395 Kbps\nMaximum bit rate : 16.6 Mbps\nWidth : 1 280 pixels\nHeight : 536 pixels\nDisplay aspect ratio : 2.35:1\nFrame rate mode : Constant\nFrame rate : 24.000 fps\nColor space : YUV\nChroma subsampling : 4:2:0\nBit depth : 8 bits\nScan type : Progressive\nBits/(Pixel*Frame) : 0.145\nStream size : 1.49 GiB (83%)\nWriting library : x264\n\n\nAudio\nID : 2\nFormat : AAC\nFormat/Info : Advanced Audio Codec\nFormat version : Version 4\nFormat profile : LC\nFormat settings, SBR : No\nCodec ID : 40\nDuration : 1h 31mn\nBit rate mode : Variable\nBit rate : 492 Kbps\nMaximum bit rate : 629 Kbps\nChannel(s) : 6 channels\nChannel positions : Front: L C R, Side: L R, LFE\nSampling rate : 48.0 KHz\nStream size : 322 MiB (17%)\n\n\nPlot:\nA black comedy about two 19th century grave robbers who find a lucrative business providing cadavers for an Edinburgh medical school.","torrent":{"xt":"urn:btih:241bd990d1db1fba7722dd75a49e4d3d976ee8bd","amp;dn":"Burke.and.Hare.2010.720p.BRRip.x264.Feel-Free","amp;tr":["udp%3A%2F%2Ftracker.openbittorrent.com%3A80","udp%3A%2F%2Fopen.demonii.com%3A1337","udp%3A%2F%2Ftracker.coppersurfer.tk%3A6969","udp%3A%2F%2Fexodus.desync.com%3A6969"],"infoHash":"241bd990d1db1fba7722dd75a49e4d3d976ee8bd","infoHashBuffer":{"type":"Buffer","data":[36,27,217,144,209,219,31,186,119,34,221,117,164,158,77,61,151,110,232,189]},"announce":[],"urlList":[]}}